PathFileType	4	(X/Y/Z)	Patient4_TMGait_0pt8_01_right_45.trc.trc
DataRate	CameraRate	NumFrames	NumMarkers	Units	OrigDataRate	OrigDataStartFrame	OrigNumFrames
83.832335329341	83.832335329341	4	33	mm	83.832335329341	18	       141
Frame#	Time	Sacral			L.Shoulder			Chest			R.Shoulder			Neck			R.ASIS			L.ASIS			R.Thigh.Superior			R.Thigh.Lateral			R.Thigh.Inferior			R.Patella			L.Thigh.Superior			L.Thigh.Lateral			L.Thigh.Inferior			L.Patella			L.Shank.Superior			L.Shank.Lateral			L.Shank.Inferior			R.Shank.Superior			R.Shank.Lateral			R.Shank.Inferior			R.Heel			R.Midfoot.Superior			R.Midfoot.Lateral			R.Toe			L.Heel			L.Midfoot.Lateral			L.Midfoot.Superior			L.Toe			L.Elbow			L.Wrist			R.Elbow			R.Wrist			
		X1	Y1	Z1	X2	Y2	Z2	X3	Y3	Z3	X4	Y4	Z4	X5	Y5	Z5	X6	Y6	Z6	X7	Y7	Z7	X8	Y8	Z8	X9	Y9	Z9	X10	Y10	Z10	X11	Y11	Z11	X12	Y12	Z12	X13	Y13	Z13	X14	Y14	Z14	X15	Y15	Z15	X16	Y16	Z16	X17	Y17	Z17	X18	Y18	Z18	X19	Y19	Z19	X20	Y20	Z20	X21	Y21	Z21	X22	Y22	Z22	X23	Y23	Z23	X24	Y24	Z24	X25	Y25	Z25	X26	Y26	Z26	X27	Y27	Z27	X28	Y28	Z28	X29	Y29	Z29	X30	Y30	Z30	X31	Y31	Z31	X32	Y32	Z32	X33	Y33	Z33	

18	50.812785714286	890.522129974808	1000.799881006698	454.560337559619	1096.309928824669	1435.830002754662	299.389594638302	1179.341571399876	1355.589734808892	467.102018948443	1079.278702491981	1423.191069065543	634.462767466600	1063.071667322926	1488.933764201192	456.400064648110	1112.552461486474	939.577451767016	583.678069126109	1109.837225960230	959.050669024793	307.921707160134	1194.845098771618	778.471007856872	551.442854081967	1168.089901676988	654.310515881547	629.258601842694	1257.021813793284	623.963482254360	546.485569076754	1299.561722321657	542.890819944603	565.558609882896	1113.035459755161	729.862142329018	338.282798929882	996.816138806349	635.003325550809	274.502002075064	1054.594609444745	541.822777842421	341.927960040683	1039.687847053827	476.554908277817	352.268366081827	1008.024722311644	409.954580766082	344.959230751260	909.475104623691	303.373820725299	294.410406076252	946.317843162739	190.053008271183	370.759101552867	1287.387323587731	453.411315563331	575.798767593025	1241.687823252867	336.630988528573	640.302742712961	1314.916583985211	254.404829697235	587.514681945600	1233.601198639398	60.549736277839	560.475258596384	1391.866894083104	145.271569642938	597.682782123651	1320.329988843092	62.042718171742	631.075692629523	1519.423361911015	116.723155422112	618.542798265895	806.839195477575	39.717945388341	414.275306198058	881.364245545915	36.250086985566	334.617223090390	965.187843693824	96.078115513323	362.491504886955	1093.299002306728	41.950751007915	335.422874973489	1209.258976918647	1145.251496706680	121.108043134847	1466.679259084332	1121.184982444433	145.802165986391	899.035493140242	1123.302714814348	711.846940316292	828.164949435341	873.550996702174	722.375151339555	
19	50.824714285714	892.015851663647	997.940670075776	456.376453344684	1095.499221659478	1433.730874780260	300.997820720941	1178.551849506904	1354.387867343399	469.014926645656	1077.889647173873	1422.143729691915	635.971367459327	1061.844320204499	1486.899159921347	457.882037259619	1114.216894784815	937.074856713421	585.529257330040	1111.388163755585	957.591007995552	309.618474656689	1195.344267977569	774.297052984510	553.265102845578	1166.641898346762	649.709910345724	629.947870365597	1255.820927941632	619.185212005832	547.693612166946	1297.085288583297	538.541718580929	566.022426661089	1111.802150750443	727.722443916567	338.830763692275	993.827924578067	634.302560885536	275.173122178497	1050.600658857094	540.278068291374	342.165667342199	1034.925640978268	474.939600749233	352.351871317431	1002.356517178569	408.812413956386	345.092820475123	902.230944850378	303.515170648177	294.646891649824	937.913207259668	189.598340335677	370.685346284768	1285.894707646608	449.058934218614	575.970052730080	1240.737168495605	331.426488404178	638.993567013354	1315.411185574615	250.413342412001	586.354963308835	1236.577477807704	56.075239993269	557.097945303859	1393.242831086728	142.230798763445	596.447356239101	1322.319570422578	58.369151018033	628.772102215926	1520.904058704316	115.073801731793	618.823487851703	797.259602291260	39.836317510690	414.177244912149	871.812764438518	36.266957242039	334.591582607688	955.668726627553	96.045562471620	362.408146387154	1083.743353828749	41.715227010509	335.321732292319	1213.258910982577	1146.913122846408	121.703831018314	1470.727584286948	1131.920605456838	148.271414065708	892.401075037101	1126.759423313145	712.641171333815	816.790917474424	878.394034441411	722.615656615212	
20	50.836642857143	893.689658244887	994.983104648311	458.506790409439	1094.558623563540	1431.510419440950	302.672287457821	1177.757086579116	1353.190047558414	470.975274972065	1076.500585399293	1421.005287658929	637.578855491035	1060.537811261833	1484.774399507977	459.453421665108	1116.126429320871	934.444681159328	587.491523338800	1113.078805075385	956.023325420933	311.448216545859	1196.463927371236	770.173964054133	555.162361645101	1165.509655094308	645.105181615847	630.398518487528	1255.075829305617	614.493414755677	548.822282521927	1294.848958295330	533.873575682357	566.340280056530	1111.032963291855	725.547952652190	339.466616210689	991.386082147261	633.478141568665	276.074720263774	1047.308418451099	538.620007699890	342.560931150699	1030.889199561779	473.115089868809	352.641229323895	997.297118572865	407.475698507581	345.402976264816	895.425581396026	303.673301531336	295.037471344218	929.710742442250	189.072101238121	370.675069451574	1284.034652621371	444.243895893683	575.948322414285	1238.479222587167	326.177207082426	637.444385639308	1313.863829748677	245.819710813243	584.989334849844	1235.771148197144	52.167791163232	553.566500263001	1391.572749084663	138.071150854573	595.123500299732	1320.404797648677	54.584351478886	626.466023828490	1518.926586842889	111.017678904559	619.227761181024	787.676371241664	40.018777740421	414.035441020237	862.291261407159	36.286490021219	334.548887681324	946.195512530243	96.015323548887	362.324499128744	1074.236814704695	41.456622624627	335.198949266331	1216.724589310750	1148.187636755756	122.525038228084	1473.946042731722	1141.368686763417	150.799786798895	887.076342071945	1129.332905999555	713.625526056220	807.268551885244	882.253147079685	723.209163940999	
21	50.848571428571	895.519148488625	992.021867489406	460.934337607180	1093.537672390338	1429.236627012917	304.432234825813	1177.007124716530	1352.018327145675	472.987973831551	1075.176840289303	1419.770739095285	639.311113206969	1059.217767139347	1482.621385266413	461.135326008907	1118.243532487755	931.764177013805	589.547295302266	1114.875062969108	954.386324162478	313.408634153568	1198.133274306491	766.154599125765	557.126630864832	1164.636008088015	640.611065285174	630.655719986222	1254.724255535038	609.998965362561	549.886977655598	1292.844548056638	529.045642413158	566.510622167267	1110.733528517967	723.378422243984	340.216421102029	989.520225031334	632.548626857267	277.217347320371	1044.755816994340	536.864180691095	343.125945170325	1027.627083377163	471.084557018591	353.130740927576	992.871847881115	405.956125934337	345.888452663727	889.087029909479	303.880504854944	295.572281489833	921.730535693569	188.504525718608	370.707655518419	1281.897807305483	439.149913727234	575.750994587804	1235.217900537404	320.991999635121	635.784026197353	1310.646555108285	240.784403636655	583.477546899412	1231.716570513678	48.824993116166	550.111043620616	1387.417766064620	132.996755375454	593.689453670448	1315.242729272803	50.800926517254	624.271464749344	1514.147316430888	104.895426386561	619.570481009904	778.088290318624	40.329304777326	413.832036260354	852.800637044164	36.322961337094	334.475488856106	936.792456864607	95.989297059133	362.215410303103	1064.784659376373	41.180659932613	335.054083916042	1219.602096085330	1149.021689267997	123.591377595461	1476.384405843201	1149.477060451595	153.366795807369	883.111645201928	1130.897093853000	714.826088334220	799.626003661979	885.006695578947	724.201399718630	
